<?xml version="1.0" encoding="UTF-8"?>
<svg xmlns="http://www.w3.org/2000/svg" xmlns:xlink="http://www.w3.org/1999/xlink" width="24pt" height="24pt" viewBox="0 0 24 24" version="1.1">
<g id="surface1">
<path style=" stroke:none;fill-rule:nonzero;fill:rgb(0%,0%,0%);fill-opacity:1;" d="M 5.855469 3.242188 C 5.855469 4.746094 4.726562 5.949219 2.910156 5.949219 L 2.875 5.949219 C 1.128906 5.949219 0 4.742188 0 3.242188 C 0 1.707031 1.164062 0.535156 2.941406 0.535156 C 4.726562 0.535156 5.820312 1.707031 5.855469 3.242188 Z M 0.304688 23.746094 L 5.511719 23.746094 L 5.511719 8.085938 L 0.304688 8.085938 Z M 18.289062 7.71875 C 15.527344 7.71875 14.289062 9.238281 13.597656 10.304688 L 13.597656 10.355469 L 13.5625 10.355469 C 13.574219 10.339844 13.585938 10.324219 13.597656 10.304688 L 13.597656 8.089844 L 8.390625 8.089844 C 8.457031 9.554688 8.390625 23.746094 8.390625 23.746094 L 13.597656 23.746094 L 13.597656 15 C 13.597656 14.53125 13.628906 14.070312 13.765625 13.730469 C 14.144531 12.800781 15.003906 11.824219 16.4375 11.824219 C 18.320312 11.824219 19.074219 13.265625 19.074219 15.367188 L 19.074219 23.746094 L 24.28125 23.746094 L 24.28125 14.769531 C 24.28125 9.957031 21.710938 7.71875 18.289062 7.71875 Z M 18.289062 7.71875 "/>
</g>
</svg>
